<svg xmlns="http://www.w3.org/2000/svg" style="display:none">
  <symbol id="settings" viewBox="0 0 24 24">
    <path d="M19.14,12.94a7.07,7.07,0,0,0,.05-1,7.07,7.07,0,0,0-.05-1l2.11-1.65a.5.5,0,0,0,.12-.64l-2-3.46a.5.5,0,0,0-.61-.22l-2.49,1a7,7,0,0,0-1.73-1l-.38-2.65A.5.5,0,0,0,13,2H11a.5.5,0,0,0-.5.42l-.38,2.65a7,7,0,0,0-1.73,1l-2.49-1a.5.5,0,0,0-.61.22l-2,3.46a.5.5,0,0,0,.12.64L4.86,10a7.07,7.07,0,0,0-.05,1,7.07,7.07,0,0,0,.05,1l-2.11,1.65a.5.5,0,0,0-.12.64l2,3.46a.5.5,0,0,0,.61.22l2.49-1a7,7,0,0,0,1.73,1l.38,2.65A.5.5,0,0,0,11,22h2a.5.5,0,0,0,.5-.42l.38-2.65a7,7,0,0,0,1.73-1l2.49,1a.5.5,0,0,0,.61-.22l2-3.46a.5.5,0,0,0-.12-.64ZM12,15.5A3.5,3.5,0,1,1,15.5,12,3.5,3.5,0,0,1,12,15.5Z"/>
  </symbol>
  <symbol id="clip" viewBox="0 0 24 24">
    <path d="M16.5 6.5v7a4.5 4.5 0 01-9 0v-7a3.5 3.5 0 017 0v7a2.5 2.5 0 01-5 0v-7" fill="none" stroke="currentColor" stroke-width="2" stroke-linecap="round" stroke-linejoin="round"/>
  </symbol>
</svg>
