<?xml version="1.0" encoding="utf-8" ?><svg xmlns="http://www.w3.org/2000/svg" xmlns:xlink="http://www.w3.org/1999/xlink" width="1600" height="848" viewBox="0 0 1600 848"><path fill="#6468C3" d="M901.98 260.663C928.364 248.342 966.062 249.198 994.833 251.169C1023.34 252.919 1041.24 261.457 1059.72 283.189C1085.14 313.069 1077.48 354.577 1078.81 391.138C1079.69 415.422 1079.16 440.748 1077.6 465.056C1075.75 493.902 1062.57 510.14 1041.01 527.973C1035.85 531.64 1030.21 534.573 1024.25 536.687C995.21 547.295 931.491 546.347 902.791 533.063C895.247 540.079 885.955 544.833 875.496 542.432C870.125 541.823 860.745 533.94 859.414 528.548C855.249 511.678 856.566 487.222 856.54 470.14L856.46 397.94L856.469 321.125C856.498 307.233 856.488 293.259 856.803 279.382C857.233 260.442 863.005 256.811 879.316 250.206C880.375 250.141 881.437 250.138 882.497 250.196C891.599 250.666 896.333 254.479 901.98 260.663ZM978.988 495.657C1001.63 493.182 1025.86 482.702 1028.37 457.591C1031.99 421.495 1031.21 376.954 1028.88 340.896C1026.47 303.4 990.26 296.111 960.223 298.807C960.069 298.834 959.915 298.86 959.76 298.886C944.387 299.926 927.264 302.47 917.293 315.728C902.078 337.961 906.5 369.925 906.089 395.426C905.808 412.892 905.751 430.09 907.022 447.124C910.384 492.176 942.171 496.32 978.988 495.657Z"/><path fill="#6468C3" d="M477.758 250.475C503.734 257.427 500.678 270.252 501.119 292.552C501.478 315.029 501.601 337.508 501.486 359.988C501.484 381.003 503.051 520.329 498.424 528.46L498.197 528.85C493.703 536.68 486.775 541.064 477.489 541.041C446.305 540.962 453.311 496.135 453.733 473.743L453.607 381.572C436.083 409.214 392.533 524.332 370.336 535.822C364.357 538.917 357.405 540.202 350.895 538.076C346.003 536.478 342.328 533.358 339.133 529.416C330.516 518.785 324.832 505.834 318.289 493.892C310.107 479.305 302.213 464.558 294.612 449.659C282.865 426.149 272.007 402.094 260.14 378.669C260.198 397.323 261.883 516.692 258.769 524.544C255.405 533.023 251.105 536.877 242.74 540.325C237.676 542.413 233.838 542.4 228.776 540.258C222.86 537.757 216.675 532.587 214.407 526.413C210.515 515.82 212.526 405.103 212.526 385.529L212.541 318.012C212.546 305.148 212.47 292.28 212.779 279.421C213.196 262.038 218.19 256.198 234.579 251.075C256.695 251.094 264.684 278.164 272.508 295.228L293.124 339.668C314.271 384.915 336.99 430.666 357.43 476.031C362.249 464.168 369.649 449.817 375.268 438.091L407.769 369.739L437.457 306.138C443.721 292.398 449.867 278.173 456.702 264.708C461.741 254.779 467.616 253.366 477.758 250.475Z"/><path fill="#6468C3" d="M600.044 252.035C650.791 251.25 701.804 253.033 752.597 252.276C768.779 252.034 788.875 254.358 789.007 275.482C789.179 303.043 756.951 300.101 738.07 300.015C723.823 299.877 709.576 299.864 695.329 299.974L695.314 493.191L736.548 493.019C754.621 492.935 789.215 489.484 788.961 516.613C788.881 523.09 786.228 529.268 781.587 533.786C772.607 542.418 758.341 540.799 746.531 540.66L638.178 540.694C619.395 540.706 600.573 540.975 581.799 540.506C563.474 540.048 559.972 532.89 554.14 517.155C563.098 487.669 580.093 492.956 605.813 493.109L647.833 493.197L647.717 299.872C624.688 299.067 589.724 303.717 567.633 296.184C559.967 293.57 556.629 283.229 554.019 276.094C561.877 248.802 575.929 252.54 600.044 252.035Z"/><path fill="#6468C3" d="M311.18 192.754C421.359 227.455 574.625 214.561 689.242 202.588C745.424 196.404 801.483 189.158 857.391 180.855C890.168 176.21 922.984 171.844 955.836 167.759C1036.34 158.115 1170.86 144.401 1231.98 210.343C1237.37 216.16 1244.15 224.328 1247.83 231.454C1249.29 234.212 1250.47 237.106 1251.36 240.094C1277.45 248.949 1289.68 268.081 1301.46 291.973C1323.73 337.16 1372.97 470.061 1356.66 518.547C1353.77 527.147 1348.05 534.052 1339.89 538.103C1326.53 544.734 1309.52 543.515 1295.55 539.682C1295.3 537.79 1294.56 535.9 1294.31 533.862C1293.56 527.709 1299.54 531.655 1303.14 526.436C1303.27 526.539 1303.4 526.648 1303.53 526.745C1308.29 530.165 1317.09 529.378 1322.56 528.303C1329.81 526.878 1335.87 523.25 1340.01 517.043C1350.9 500.727 1343.87 469.473 1340.09 451.579C1330.8 407.619 1293.47 283.411 1255.99 259.02C1248.5 254.144 1239.96 251.598 1231.07 253.587C1214.7 257.254 1202.84 273.419 1194.52 286.841C1185.03 302.156 1177.43 318.962 1170.67 335.645C1156.77 369.959 1122.12 471.927 1130.46 506.375C1132.34 514.131 1136.67 520.9 1143.63 525.005C1151.82 529.835 1161.78 530.119 1170.78 527.658C1171.76 527.389 1172.73 527.086 1173.68 526.752C1177.18 528.527 1181.69 530.369 1182.77 534.48C1183.44 537.01 1181.79 539.695 1179.5 540.598C1160.22 542.583 1130.61 546.077 1120.91 524.953C1107.43 495.62 1120.16 440.13 1129.86 409.832C1146.43 358.08 1162.67 297.844 1197.15 255.275C1203.59 247.827 1216.4 242.981 1224.42 238.547L1228.91 229.187C1170.97 141.697 990.74 175.929 902.785 186.346C897.371 186.987 891.693 187.82 886.264 188.547C832.24 196.149 778.153 203.296 724.008 209.989C651.86 219.096 579.267 224.238 506.557 225.391C452.413 225.995 395.745 223.926 342.437 213.445C332.778 211.546 312.598 204.426 304.384 207.446C300.102 211.698 304.219 215.158 307.261 218.96C297.993 229.763 294.654 212.874 292.284 205.765C302.96 206.712 309.678 203.662 311.18 192.754Z"/><path fill="#899ADC" d="M1232.68 290.13C1252.17 288.894 1262.66 306.36 1269 322.47C1285.84 365.266 1300.39 390.109 1240.43 390.798C1196.28 391.404 1180.27 384.574 1199.57 338.415C1206.92 320.84 1213.87 298.539 1232.68 290.13ZM1206.09 366.97C1213.57 382.685 1224.37 380.944 1239.54 380.008C1253.7 380.087 1262.98 381.772 1269.1 367.015C1265.47 352.198 1254.2 313.191 1240.4 302.447C1239.34 301.628 1235.97 301.708 1234.49 301.724C1221.42 314.903 1209.62 349.112 1206.09 366.97Z"/><path fill="#6468C3" d="M235.521 178.579C233.029 169.89 232.242 160.259 243.433 157.94C265.24 153.421 304.734 170.703 311.18 192.754C309.678 203.662 302.96 206.712 292.284 205.765C294.654 212.874 297.993 229.763 307.261 218.96C313.773 231.743 295.268 235.541 286.518 236.19C265.05 237.784 242.754 232.934 225.791 219.142C215.618 210.87 208.557 193.27 216.158 181.314C217.469 179.319 220.631 179.781 222.907 179.931C227.535 181.584 231.309 180.566 235.521 178.579Z"/><path fill="#3F39A3" d="M235.521 178.579C233.029 169.89 232.242 160.259 243.433 157.94C265.24 153.421 304.734 170.703 311.18 192.754C309.678 203.662 302.96 206.712 292.284 205.765C280.158 205.415 243.723 193.502 240.134 181.516C239.269 180.417 238.377 179.756 237.312 178.864L235.521 178.579Z"/><path fill="#6468C3" d="M246.861 164.995C266.718 164.268 286.497 174.544 300.757 187.925C305.326 192.213 302.596 195.683 298.809 198.463C296.072 198.562 292.511 198.666 289.842 198.652C278.516 198.594 242.012 182.795 242.367 169.683C243.888 166.438 243.61 167.302 246.861 164.995Z"/><path fill="#899ADC" d="M235.521 178.579L237.312 178.864C238.377 179.756 239.269 180.417 240.134 181.516L239.724 182.135C234.657 189.687 226.378 189.653 218.467 192.677C218.008 192.853 218.046 196.753 218.281 197.522C227.162 226.577 268.994 235.399 293.764 230.219C295.595 229.838 297.416 229.41 299.225 228.936C294.72 223.98 286.816 213.881 288.774 206.898C290.284 205.968 290.485 206.015 292.284 205.765C294.654 212.874 297.993 229.763 307.261 218.96C313.773 231.743 295.268 235.541 286.518 236.19C265.05 237.784 242.754 232.934 225.791 219.142C215.618 210.87 208.557 193.27 216.158 181.314C217.469 179.319 220.631 179.781 222.907 179.931C227.535 181.584 231.309 180.566 235.521 178.579Z"/><path fill="#6468C3" d="M235.521 178.579L237.312 178.864C233.385 181.408 225.514 187.133 220.916 186.417L220.139 185.208C220.894 182.442 221.193 182.097 222.907 179.931C227.535 181.584 231.309 180.566 235.521 178.579Z"/><path fill="#899ADC" d="M250.846 195.974L253.147 196.633C255.789 202.554 238.442 211.841 234.248 214.4L232.233 213.79L231.739 212.338C233.388 208.301 246.297 199.708 250.846 195.974Z"/><path fill="#899ADC" d="M272.69 203.594C273.242 204.075 274.104 205.085 274.634 205.664C275.975 211.903 272.543 221.803 269.98 227.585L268.128 225.371C266.32 219.381 270.391 209.393 272.69 203.594Z"/><path fill="#899ADC" d="M1214.42 420.157C1236.12 417.637 1268.74 418.136 1289.65 427.055C1307.95 434.86 1313.73 490.502 1296.92 494.441C1279.96 489.878 1317.28 441.303 1258.41 434.491C1239.23 431.288 1213.88 431.884 1194.84 440.101C1171.37 450.234 1189.26 489.25 1179.12 495.046C1173.84 494.861 1169.06 486.988 1168.8 482.259C1166.52 442.266 1171.1 424.131 1214.42 420.157Z"/><path fill="#6468C3" d="M833.016 599.537C841.334 599.462 855.106 598.657 861.604 604.098C871.858 612.684 869.877 628.739 862.587 638.258C853.349 645.293 844.547 644.174 833.496 643.924C833.451 629.385 833.641 613.994 833.016 599.537ZM838.155 639.266C847.187 639.379 852.407 639.695 860.253 634.495C872.793 613.032 859.155 603.052 837.902 603.315L838.155 639.266Z"/><path fill="#6468C3" d="M785.06 597.931C804.366 597.751 800.421 611.267 788.291 619.902L798.753 631.323C799.871 628.397 800.561 624.615 803.957 624.308C806.098 627.801 803.655 631.933 802.231 635.432C804.747 637.881 807.953 640.245 807.69 643.882L806.162 644.724C803.951 643.572 801.662 641.356 799.75 639.671C783.872 646.789 779.899 650.153 771.807 632.726C775.419 624.979 776.647 623.495 783.509 618.846C776.14 610.585 775.509 604.492 785.06 597.931ZM786.728 640.844C789.616 639.922 792.166 639.433 794.144 637.169C795.725 631.647 789.232 626.646 785.529 622.703C776.641 629.545 771.04 637.744 786.728 640.844ZM791.955 612.548C793.402 609.989 794.477 608.665 794.081 605.778C791.496 601.627 787.674 602.091 783.168 602.377C782.653 607.278 781.938 612.172 787.07 614.47C789.508 614.439 789.93 613.982 791.955 612.548Z"/><path fill="#6468C3" d="M597.008 611.209C603.722 611.014 602.693 612.165 608.541 614.5C609.359 614.826 610.253 611.888 613.769 611.087C615.906 614.144 614.473 639.304 614.732 644.19C615.428 657.319 597.896 662.065 590.245 652.236C589.568 649.306 589.417 650.467 590.744 647.869C599.295 655.107 605.015 656.902 611.135 643.405C611.774 641.996 610.576 640.301 609.784 639.092C606.116 640.951 603.659 646.073 597.718 643.814C582.615 638.071 584.995 618.969 597.008 611.209ZM602.812 640.32C612.573 631.806 613.287 618.375 599.705 613.986C588.737 621.862 588.581 639.499 602.812 640.32Z"/><path fill="#6468C3" d="M931.496 611.237C937.097 611.151 939.19 611.949 943.999 614.84C944.811 613.209 944.832 612.833 946.362 612.05L947.739 613.058C950.69 619.521 949.848 638.986 947.926 646.483C946.683 651.008 944.199 655.218 940.151 657.604C935.226 660.508 926.4 656.093 924.027 651.444C923.83 648.549 923.516 649.717 925.563 647.065C937.073 657.515 944.504 654.864 945.234 638.773C924.217 657.384 912.519 622.207 931.496 611.237ZM936.836 640.354C948.443 631.518 948.561 619.85 934.453 614C924.743 622.479 921.747 638.61 936.836 640.354Z"/><path fill="#6468C3" d="M318.504 598.654C319.701 599.056 320.374 599.491 321.453 600.105C323.628 605.089 323.11 637.851 321.638 643.635C319.821 644.322 320.712 644.308 318.877 643.681L317.859 640.625C313.539 640.791 313.243 642.678 308.785 644.188C305.393 644.065 304.401 643.389 301.339 641.843C300.096 640.41 299.025 638.836 298.147 637.154C294.645 630.413 297.029 621.505 299.267 614.735C307.744 610.016 310.182 609.971 318.284 615.287C318.234 609.776 318.066 604.138 318.504 598.654ZM310.731 640.311C321.327 631.519 322.056 619.698 308.2 614.181C296.673 621.918 298.298 640.087 310.731 640.311Z"/><path fill="#6468C3" d="M1002.02 611.225C1022.59 610.536 1026.58 632.437 1010.08 643.91C991.248 644.754 987.421 630.485 995.083 615.52L1002.02 611.225ZM1007.8 640.375C1018.42 631.514 1018.74 617.31 1003.93 614.088C994.089 623.296 991.344 638.353 1007.8 640.375Z"/><path fill="#6468C3" d="M213.195 599.252C217.527 599.541 219.177 601.209 220.938 605.058C225.542 615.122 229.037 626.73 232.816 637.126C236.339 629.715 243.487 603.403 250.385 600.155L251.506 600.896C253.508 608.049 253.829 636.41 252.045 643.616L250.796 643.851C247.517 639.854 248.839 623.134 249.138 617.468C249.151 614.614 248.977 611.789 248.832 608.939C247.962 609.484 236.015 641.073 233.838 645.22C227.171 635.294 222.138 620.26 217.919 608.857C218.264 614.245 220.203 640.746 214.919 642.743C212.216 638.996 213.206 605.67 213.195 599.252Z"/><path fill="#6468C3" d="M1130.14 599.352C1131.93 599.417 1133.96 599.488 1135.09 600.873C1140.12 607.028 1150.95 636.822 1150.62 643.477L1149.25 644.015C1146.31 641.737 1144.67 633.364 1141.86 630.309C1140.68 629.032 1138.9 629.399 1136.91 629.343L1123.86 629.199C1121.81 635.125 1121.15 638.934 1116.89 643.506L1115.9 643.504C1114.88 636.584 1126.85 606.795 1130.14 599.352ZM1134.05 626.111C1136.92 625.897 1137.44 626.39 1139.14 624.776C1139.84 618.327 1135.6 610.158 1133.02 603.849C1131.07 608.61 1125.67 620.924 1125.84 625.433C1128.55 626.316 1131.2 626.119 1134.05 626.111Z"/><path fill="#6468C3" d="M899.021 611.269C921.017 609.382 911.361 626.227 915.56 638.517C916.416 641.02 917.798 641.206 916.802 644.09L915.056 644.872C911.664 643.697 912.312 641.248 909.848 639.748C899.804 641.725 903.018 648.081 890.83 641.397C881.22 624.837 909.519 628.503 909.501 618.392C904.47 610.9 898.834 618.017 890.691 619.558L889.877 618.851C891.757 614.094 894.475 613.482 899.021 611.269ZM895.558 639.839C904.537 640.065 911.666 636.223 909.802 626.113C904.091 628.001 897.28 629.166 894.458 634.205C893.919 636.712 894.521 637.56 895.558 639.839Z"/><path fill="#6468C3" d="M1290.04 611.222C1296.17 611.114 1306.42 613.258 1308.29 619.918C1312.55 635.119 1289.08 622.878 1285.44 631.099C1286.32 639.224 1293.18 641.976 1300.24 637.901C1301.8 636.219 1302.53 635.148 1304.77 634.488L1306 635.231C1306 637.875 1303.48 641.431 1301.18 642.439C1280.59 651.491 1271.94 622.258 1290.04 611.222ZM1297.85 625.281C1301.05 624.859 1300.4 625.382 1302.72 623.582C1303.09 617.978 1297.78 614.99 1292.85 614.238C1289.36 616.281 1286.09 617.45 1285.67 621.824C1288.75 626.43 1292.75 625.496 1297.85 625.281Z"/><path fill="#6468C3" d="M732.991 611.248C746.834 610.67 749.126 616.405 752.108 628.344C747.722 628.103 731.085 626.664 728.108 629.246C728.159 638.177 734.389 641.629 742.21 638.402C744.027 636.452 745.485 634.198 748.222 635.28C748.295 637.961 745.778 641.212 743.764 642.391C732.163 649.182 719.891 636.812 723 624.645C724.952 617.007 727.123 615.112 732.991 611.248ZM740.82 625.27C744.294 625.055 744.004 625.661 745.845 623.718C745.398 618.122 739.815 615.227 734.836 614.141C731.505 616.58 725.942 619.737 728.993 624.082C732.44 626.007 736.705 625.361 740.82 625.27Z"/><path fill="#6468C3" d="M385.633 611.272C409.604 609.074 396.265 627.528 402.458 639.399C403.973 642.303 404.324 642.947 402.057 644.797C399.771 644.133 398.544 641.792 396.902 639.64C387.524 641.35 391.461 647.012 378.978 642.811C378.343 642.171 377.452 640.943 377.087 640.116C370.797 625.861 393.438 627.858 396.835 619.435C393.852 610.298 382.925 619.507 377.584 618.018L377.569 616.534C379.17 613.949 382.79 612.637 385.633 611.272ZM383.023 640.388C389.262 639.214 401.456 635.237 395.963 626.153C388.789 628.576 377.015 630.502 383.023 640.388Z"/><path fill="#6468C3" d="M273.109 611.249C286.879 610.49 288.308 616.408 291.249 628.251C287.168 628.233 269.592 627.093 267.328 629.244C267.897 637.39 274.234 641.389 281.897 638.64C284.435 636.401 284.697 635.413 287.536 634.908L288.082 636.16C286.341 641.111 277.742 646.774 272.975 644.761C261.447 639.893 262.366 624.587 265.218 615.631L273.109 611.249ZM279.883 625.233C283.029 625.026 282.883 625.507 285.16 623.93C285.955 618.433 279.678 615.431 275.214 614.146C271.191 616.478 266.07 618.511 268.876 623.591C272.335 626.029 275.592 625.379 279.883 625.233Z"/><path fill="#6468C3" d="M632.824 611.23C646.385 611.073 648.866 614.78 650.186 627.815C644.569 627.607 634.353 627.229 628.751 628.478C627.449 628.768 627.376 629.83 626.964 631.005C628.162 637.897 635.831 642.079 642.392 637.954C644.673 635.959 644.973 635.232 647.543 634.912L648.344 636.071C647.746 638.693 645.384 641.948 642.847 642.874C622.312 650.372 613.854 621.023 632.824 611.23ZM640.039 625.23C643.437 624.923 642.856 625.479 645.154 623.602C645.366 618.557 639.289 614.665 634.776 614.033C631.117 616.36 626.086 618.692 628.351 623.513C631.915 626.169 635.569 625.419 640.039 625.23Z"/><path fill="#6468C3" d="M523.037 611.208C536.226 610.62 537.872 617.206 540.661 628.083C534.358 627.773 517.742 625.452 515.695 632.645C518.337 638.775 525.789 640.059 531.682 638.34C533.368 636.636 533.685 636.248 535.822 635.203L536.992 635.822L536.682 637.833C535 640.354 533.469 642.002 530.629 643.303C527.656 644.699 524.246 644.835 521.171 643.68C510.634 639.736 509.177 621.76 516.52 614.38C517.218 613.679 521.91 611.687 523.037 611.208ZM528.32 625.203C530.85 625.23 532.434 625.561 534.342 624.034C535.567 618.798 529.419 615.528 525.138 614.31C521.267 616.33 515.604 618.427 517.789 623.533C521.001 626.035 524.225 625.39 528.32 625.203Z"/><path fill="#3F39A3" d="M1295.55 539.682C1290.4 539.069 1270.15 538.309 1274.16 528.168C1280.82 511.37 1293.66 510.556 1303.14 526.436C1299.54 531.655 1293.56 527.709 1294.31 533.862C1294.56 535.9 1295.3 537.79 1295.55 539.682Z"/><path fill="#3F39A3" d="M1173.68 526.752C1177.25 522.322 1180.59 517.71 1186.59 516.854C1193.29 515.899 1199.49 522.351 1199.78 528.755C1200.33 540.916 1187.77 540.797 1179.5 540.598C1181.79 539.695 1183.44 537.01 1182.77 534.48C1181.69 530.369 1177.18 528.527 1173.68 526.752Z"/><path fill="#6468C3" d="M959.592 610.873C961.495 611.57 962.546 612.842 964.038 614.256C968.474 614.319 976.055 607.364 981.67 614.444C985.139 618.818 985.855 639.688 981.734 643.574L980.229 643.373C977.77 640.274 979.108 627.947 979.357 623.271C977.719 609.635 968.944 613.965 963.279 622.272C963.41 628.235 964.054 637.913 961.525 643.276L960.589 643.33C957.604 638.677 957.504 616.217 959.592 610.873Z"/><path fill="#6468C3" d="M458.924 610.728C461.008 611.564 461.758 612.682 463.279 614.339C465.412 614.75 468.982 611.266 474.269 610.975C486.262 610.316 486.391 639.2 481.126 643.875C478.479 640.482 479.432 628.243 479.518 623.286C477.21 610.225 469.234 613.844 463.036 621.624C463.03 628.543 463.603 636.236 461.016 642.6L459.922 642.894C456.638 638.585 456.993 616.062 458.924 610.728Z"/><path fill="#6468C3" d="M1166.66 611.285C1171.72 610.966 1176.91 611.964 1180.9 615.241C1182.07 617.655 1181.98 616.636 1181.38 619.076C1177.66 619.692 1173.01 613.845 1166.51 615.478C1164.23 617.361 1164.8 616.401 1164.11 619.033C1166.86 626.219 1182.74 627.026 1183.82 636.486C1182.14 640.87 1178.93 642.034 1174.84 643.975C1169.46 644.331 1160.23 643.638 1158.87 637.301C1161.62 631.869 1173.66 646.583 1177.78 636.066C1175.14 627.414 1144.88 622.628 1166.66 611.285Z"/><path fill="#6468C3" d="M1238.59 611.285C1243.66 610.882 1249.61 611.829 1253.57 615.227C1254.31 617.416 1254.36 616.487 1253.3 618.703C1249.79 619.362 1246.01 615.146 1240.55 614.975C1237.74 616.176 1238.7 615.424 1236.85 617.772C1237.6 625.489 1251.13 625.544 1255.46 634.597C1255.5 640.491 1250.53 642.728 1245.41 644.227C1240.16 644.36 1231.73 642.037 1230.05 636.618L1230.88 635.267C1236.17 634.862 1245.31 644.692 1250.5 636.89C1248.85 628.954 1218.82 623.159 1238.59 611.285Z"/><path fill="#6468C3" d="M1076.83 611.301C1077.75 611.291 1078.66 611.312 1079.58 611.364C1083.87 611.59 1092.67 613.159 1091.73 618.889C1087.53 619.936 1078.86 611.114 1073.85 617.814C1075.95 626.132 1109.54 633.727 1083.52 644.264C1078.51 644.53 1068.86 642.474 1067.96 636.891C1071.22 631.906 1076.47 642.045 1085.03 639.454C1087.4 637.472 1086.94 638.371 1087.73 635.901C1085.52 627.977 1054.98 622.434 1076.83 611.301Z"/><path fill="#6468C3" d="M1328.55 611.237C1338.28 610.727 1341.97 615.714 1342.07 624.93C1342.12 629.097 1343.35 642.03 1339.09 643.638C1332.99 640.263 1343.44 617.682 1330.26 614.501L1329.56 614.337C1312.68 623.374 1324.98 637.628 1318.15 643.489L1317.05 643.055C1315.89 639.659 1315.85 619.521 1316.43 615.325C1319.45 612.212 1321.37 615.959 1328.25 611.436L1328.55 611.237Z"/><path fill="#6468C3" d="M1033.11 611.269C1033.75 611.247 1034.39 611.236 1035.03 611.236C1039.07 611.247 1048.35 613.271 1048.1 618.31C1044.66 618.864 1038.63 615.579 1033.03 615.356C1031.11 616.478 1031.72 615.808 1030.79 618.019C1032.14 625.84 1050.1 627.247 1049.37 637.813C1047 641.832 1043.86 642.85 1039.56 644.135C1038.25 644.195 1036.95 644.158 1035.65 644.026C1031.72 643.648 1024.98 640.668 1025.5 635.991C1030.87 635.154 1039.6 644.04 1044.12 636.634C1041.38 627.311 1012.39 623.725 1033.11 611.269Z"/><path fill="#6468C3" d="M1195.56 611.222C1200.48 611.067 1209.18 612.904 1211.68 617.383L1210.54 618.888C1204.07 621.188 1201.86 609.493 1193.96 616.693C1191.8 625.248 1207.28 625.13 1212.18 634.53C1212.36 640.202 1207.86 642.321 1202.93 644.033C1196.5 644.41 1189.87 643.4 1187.79 636.257C1193.49 635.602 1203.31 644.097 1207.49 636.37C1205.67 628.672 1174.16 623.262 1195.56 611.222Z"/><path fill="#6468C3" d="M670.958 611.215C676.572 611.013 682.688 612.091 683.47 619.007C683.976 623.483 684.298 641.354 681.567 644.12C672.782 638.434 687.126 618.267 672.25 614.464L671.513 614.281C656.153 622.161 665.909 631.365 661.223 644.253L660.545 644.43C657.889 641.091 658.011 621.79 658.298 616.884C658.429 614.651 668.255 612.524 670.958 611.215Z"/><path fill="#6468C3" d="M354.986 611.269C360.644 611.152 370.079 612.51 370.269 619.99C365.443 620.054 353.047 607.714 349.855 623.48C348.136 631.974 351.457 641.003 361.646 639.282C363.919 636.85 366.347 632.815 369.648 634.754C369.715 638.328 365.169 641.827 362.364 643.428C351.585 649.58 345.821 637.368 344.944 628.526C344.415 623.186 345.559 620.847 347.795 616.128C349.568 614.583 352.9 612.597 354.986 611.269Z"/><path fill="#6468C3" d="M700.91 611.202C706.312 611.037 716.679 612.749 716.798 619.804C712.256 623.455 706.477 608.526 699.53 616.672C691.9 625.62 693.808 640.131 707.994 639.385C710.033 636.893 712.067 633.297 715.485 634.207L715.7 636.039C706.538 659.188 674.937 630.355 700.91 611.202Z"/><path fill="#6468C3" d="M1263.71 601.94L1266.89 602.758C1271.55 607.912 1263.53 606.622 1274.23 612.761L1274.41 614.305C1272.34 616.349 1269.68 614.902 1269.28 616.025C1267.66 620.565 1268.66 633.545 1268.83 638.302C1271.71 639.603 1274.72 640.608 1276.49 643.178C1256.64 650.365 1265.86 623.36 1263.11 615.599L1259.92 614.555C1259.46 612.014 1262.74 611.18 1263.12 609.627C1263.51 608.03 1263.64 603.647 1263.71 601.94Z"/><path fill="#6468C3" d="M495.363 601.872C498.486 602.654 498.327 602.104 500.183 604.145C499.943 613.531 504.369 609.759 505.377 614.619C503.562 615.497 503.072 615.581 501.088 616.052C499.353 620.4 499.247 634.526 501.88 638.739C502.399 639.569 506.095 639.075 507.814 642.566C504.234 644.431 502.813 645.472 498.88 643.587C492.272 637.207 496.777 623.57 495.211 615.673C493.701 615.319 492.815 615.068 491.347 614.563L491.195 612.929C496.52 609.057 495.743 608.531 495.363 601.872Z"/><path fill="#6468C3" d="M1353.13 601.319C1362.99 606.768 1349.11 609.385 1362.91 612.163L1363.48 613.557L1362.52 614.968L1357.88 615.847C1355.73 618.78 1356.94 634.159 1357.1 638.671C1362.09 640.044 1362.75 639.807 1365.4 643.72C1352.13 644.678 1351.79 639.854 1352.67 628.045C1352.92 624.572 1353.08 620.899 1353.15 617.407C1352.04 615.261 1351.46 615.638 1348.65 614.537C1347.92 611.88 1351.54 610.85 1352.68 607.916C1353.25 606.476 1353.15 602.942 1353.13 601.319Z"/><path fill="#6468C3" d="M560.943 598.904L564.43 599.815C566.724 603.426 565.951 637.795 565.908 643.932C563.956 644.134 563.866 644.095 561.948 643.572C559.862 637.854 560.858 606.84 560.943 598.904Z"/><path fill="#6468C3" d="M441.984 598.718C443.593 599.23 443.662 599.328 445 600.399C447.098 605.796 445.981 637.566 445.878 645.298C442.549 643.539 441.872 641.109 441.626 637.476C440.772 624.872 441.464 611.282 441.984 598.718Z"/><path fill="#6468C3" d="M410.925 598.532C412.015 598.93 412.858 599.478 413.856 600.059C415.923 605.018 414.873 638.477 414.613 645.563C412.484 644.331 411.463 643.555 411.113 640.929C409.283 627.171 410.425 612.395 410.925 598.532Z"/><path fill="#6468C3" d="M547.423 598.562L549.701 599.768C552.653 605.362 551.618 637.162 550.558 644.752C548.551 643.96 549.252 644.477 547.903 642.766C546.381 636.016 546.3 605.745 547.423 598.562Z"/><path fill="#6468C3" d="M1219.21 611.279C1220.27 611.493 1221.43 611.903 1222.47 612.23C1225.53 617.312 1223.89 637.94 1223.59 644.738C1221.57 644.254 1221.41 644.283 1219.86 642.983C1217.68 638.116 1218.46 617.034 1219.21 611.279Z"/><path fill="#6468C3" d="M332.048 611.416C333.534 611.655 334.185 611.936 335.564 612.44C338.461 617.256 336.865 638.017 336.572 644.564C335.142 644.216 334.608 643.902 333.321 643.271C330.817 639.046 331.956 617.607 332.048 611.416Z"/><path fill="#6468C3" d="M574.955 611.465L578.572 612.122C580.6 614.367 579.676 639.625 579.63 644.361C577.888 644.139 577.684 644.042 576.042 643.38C573.75 638.981 574.864 617.838 574.955 611.465Z"/><path fill="#6468C3" d="M1056.97 610.856L1059.75 612.363C1062.8 618.082 1061.45 637.428 1061.15 644.638C1059.5 644.314 1059.53 644.266 1058.05 643.389C1055.29 637.763 1056.69 618.122 1056.97 610.856Z"/><path fill="#6468C3" d="M876.94 610.697C878.127 611.099 879.133 611.678 880.243 612.257C882.525 617.452 881.211 638.623 881.015 645.146C879.338 644.373 879.383 644.371 878.008 643.114C875.448 635.428 876.475 619.159 876.94 610.697Z"/></svg>